<svg width="37" height="37" viewBox="0 0 37 37" fill="none" xmlns="http://www.w3.org/2000/svg">
<circle cx="18.5" cy="18.5" r="18.5" fill="white"/>
<path d="M18.0587 18.9768L10.0735 27.2345C10.0742 27.2359 10.0742 27.2374 10.075 27.2388C10.3195 28.1362 11.1602 28.7961 12.1577 28.7961C12.5567 28.7961 12.931 28.6909 13.252 28.5067L13.2775 28.4921L22.2655 23.4388L18.0587 18.9768Z" fill="#EB4335"/>
<path d="M26.1369 17.5708L26.1294 17.5657L22.2489 15.3734L17.8772 19.1639L22.2639 23.4374L26.1242 21.2678C26.8007 20.9119 27.2597 20.2169 27.2597 19.4153C27.2597 18.6194 26.8067 17.9274 26.1369 17.5708Z" fill="#FABC13"/>
<path d="M10.0735 11.5617C10.0255 11.7341 10 11.9146 10 12.1024V26.6937C10 26.8815 10.0247 27.0628 10.0735 27.2345L18.3333 19.188L10.0735 11.5617Z" fill="#547DBF"/>
<path d="M18.1172 19.3977L22.2505 15.3719L13.2722 10.3003C12.946 10.1096 12.5657 10 12.1577 10C11.1602 10 10.3187 10.6613 10.0735 11.5595V11.5617L18.1172 19.3977Z" fill="#30A851"/>
</svg>
