<svg width="37" height="37" viewBox="0 0 37 37" fill="none" xmlns="http://www.w3.org/2000/svg">
<circle cx="18.5" cy="18.5" r="18.5" fill="white"/>
<path d="M24.1988 18.1678C24.2091 17.3628 24.4219 16.5736 24.8172 15.8735C25.2126 15.1735 25.7777 14.5852 26.4601 14.1637C26.0266 13.5415 25.4548 13.0295 24.79 12.6683C24.1252 12.3071 23.3857 12.1066 22.6303 12.0829C21.019 11.9129 19.4569 13.0519 18.6358 13.0519C17.7988 13.0519 16.5346 12.0997 15.1733 12.1279C14.2927 12.1565 13.4345 12.4138 12.6824 12.8748C11.9302 13.3359 11.3097 13.9848 10.8812 14.7586C9.02547 17.9877 10.4097 22.7333 12.1874 25.3435C13.0768 26.6216 14.1163 28.0493 15.4764 27.9987C16.8074 27.9432 17.3044 27.1457 18.911 27.1457C20.5027 27.1457 20.9691 27.9987 22.3568 27.9665C23.785 27.9432 24.6848 26.6827 25.543 25.3925C26.182 24.4818 26.6738 23.4752 27 22.4102C26.1703 22.0575 25.4622 21.4671 24.9641 20.7127C24.4659 19.9583 24.1998 19.0732 24.1988 18.1678Z" fill="black"/>
<path d="M21.5777 10.3662C22.3564 9.42674 22.74 8.21918 22.6471 7C21.4574 7.12558 20.3585 7.69702 19.5692 8.60047C19.1834 9.04183 18.8878 9.55529 18.6995 10.1115C18.5112 10.6677 18.4338 11.2558 18.4718 11.8421C19.0669 11.8482 19.6555 11.7186 20.1935 11.463C20.7315 11.2073 21.2048 10.8323 21.5777 10.3662Z" fill="black"/>
</svg>
